<svg width="261" height="32" viewBox="0 0 261 32" fill="none" xmlns="http://www.w3.org/2000/svg">
<path d="M24.0811 14.797C24.0811 16.9023 23.6554 18.7068 22.8649 20.2707C22.0743 21.8346 21.0405 23.0978 19.7635 24.0602C18.4865 25.0226 17.027 25.8045 15.3851 26.2857C13.7432 26.7669 12.1014 27.0677 10.3987 27.0677H0V25.8045C0.364865 25.8045 0.790541 25.7444 1.33784 25.6842C1.88514 25.6241 2.25 25.5639 2.43243 25.4436C2.7973 25.2632 3.04054 25.0827 3.22297 24.782C3.40541 24.4812 3.46622 24.1203 3.46622 23.6993V5.83461C3.46622 5.41356 3.40541 5.1128 3.28378 4.7519C3.10135 4.45115 2.7973 4.21055 2.43243 4.0301C2.06757 3.84965 1.64189 3.72935 1.21622 3.6692C0.790541 3.60904 0.425676 3.54889 0.121622 3.48874V2.22559H11.0676C12.5878 2.22559 14.0473 2.46619 15.5068 2.88724C16.9662 3.30829 18.2432 3.96995 19.3378 4.7519C20.7973 5.77446 21.9527 7.15792 22.8041 8.84213C23.6554 10.5865 24.0811 12.5113 24.0811 14.797ZM19.7635 14.797C19.7635 13.1128 19.5203 11.609 19.0946 10.2857C18.6689 8.96243 18 7.75942 17.1487 6.73687C16.3581 5.77446 15.3243 5.05265 14.1689 4.5113C13.0135 3.96995 11.6757 3.6692 10.2162 3.6692C9.72973 3.6692 9.18243 3.6692 8.57433 3.6692C7.96622 3.6692 7.54054 3.72935 7.23649 3.72935V22.797C7.23649 23.8797 7.54054 24.6015 8.14865 25.0226C8.75676 25.4436 9.72973 25.6241 11.0068 25.6241C12.527 25.6241 13.8041 25.3835 14.9595 24.8421C16.0541 24.3008 16.9662 23.579 17.6959 22.6767C18.4257 21.7143 18.973 20.5715 19.277 19.3083C19.5811 17.985 19.7635 16.4812 19.7635 14.797Z" fill="#1C2953"/>
<path d="M42.2027 22.9774C41.473 24.3608 40.5 25.4435 39.2838 26.2857C38.0676 27.1278 36.6689 27.4887 35.0879 27.4887C33.6892 27.4887 32.473 27.2481 31.3784 26.7669C30.2838 26.2856 29.4325 25.624 28.7635 24.7819C28.0946 23.9398 27.5473 22.9774 27.2433 21.8345C26.8784 20.6917 26.7568 19.5488 26.7568 18.2856C26.7568 17.1428 26.9392 16.0601 27.3041 14.9774C27.6689 13.8947 28.2162 12.9323 28.8852 12.0902C29.5541 11.2481 30.4054 10.5864 31.3784 10.1052C32.3514 9.62399 33.5068 9.32324 34.723 9.32324C36 9.32324 37.0946 9.50369 38.0068 9.92475C38.9189 10.3458 39.6487 10.8872 40.196 11.5488C40.7433 12.2105 41.1689 12.9924 41.4122 13.8345C41.6554 14.7368 41.8379 15.6992 41.8379 16.7217V17.8646H30.2838C30.2838 19.0075 30.4054 20.03 30.5879 20.9323C30.8311 21.8345 31.1352 22.6766 31.6216 23.3383C32.1081 23.9999 32.6554 24.5413 33.446 24.9623C34.2365 25.3834 35.0879 25.5638 36.1216 25.5638C37.1554 25.5638 38.0676 25.3232 38.8581 24.842C39.5879 24.3608 40.3784 23.4586 41.0473 22.1954L42.2027 22.9774ZM38.3108 16.421C38.3108 15.7593 38.25 15.0977 38.1284 14.3157C38.0068 13.5939 37.8243 12.9323 37.5811 12.4511C37.3379 11.9097 36.9122 11.4887 36.4865 11.1278C36 10.7669 35.3919 10.6466 34.6622 10.6466C33.446 10.6466 32.4122 11.1278 31.5608 12.1503C30.7703 13.1729 30.2838 14.5563 30.223 16.421H38.3108Z" fill="#1C2953"/>
<path d="M63.4865 27.0676H54.973V25.9247C55.2162 25.9247 55.5203 25.8646 55.8851 25.8646C56.1892 25.8646 56.4933 25.8044 56.6757 25.7443C56.9797 25.624 57.223 25.4435 57.4054 25.2029C57.5879 24.9623 57.6487 24.6014 57.6487 24.1804V15.2781C57.6487 14.0751 57.3446 13.1127 56.7973 12.4511C56.25 11.7894 55.4595 11.4285 54.6081 11.4285C54 11.4285 53.3919 11.5488 52.9054 11.7293C52.3581 11.9097 51.9324 12.1503 51.5068 12.4511C51.1419 12.6917 50.777 12.9924 50.5946 13.2932C50.3514 13.5939 50.1689 13.8345 50.1081 14.015V23.9398C50.1081 24.3608 50.1689 24.6616 50.3514 24.9022C50.5338 25.1428 50.777 25.3834 51.0811 25.5037C51.3243 25.624 51.5676 25.6841 51.8716 25.7443C52.1757 25.8044 52.4797 25.8646 52.7838 25.8646V27.0676H44.2703V25.9247C44.5135 25.9247 44.8176 25.8646 45.1216 25.8646C45.4257 25.8646 45.6689 25.8044 45.8514 25.7443C46.1554 25.624 46.3987 25.4435 46.5811 25.2029C46.7635 24.9623 46.8243 24.6014 46.8243 24.1804V13.4736C46.8243 13.0526 46.7635 12.6917 46.5811 12.3909C46.3987 12.03 46.1554 11.7894 45.8514 11.609C45.6081 11.4285 45.3041 11.3684 45 11.3082C44.696 11.2481 44.3919 11.1879 44.027 11.1879V10.045L49.8041 9.68414L50.0473 9.92475V12.3308H50.1081C50.4122 12.03 50.7162 11.7293 51.1419 11.3082C51.5676 10.8872 51.9933 10.5864 52.3581 10.3458C52.7838 10.045 53.3311 9.80445 53.9392 9.62399C54.5473 9.44354 55.2162 9.32324 55.946 9.32324C57.6487 9.32324 58.8649 9.8646 59.6554 10.8872C60.446 11.9097 60.8716 13.2932 60.8716 14.9774V23.9398C60.8716 24.3608 60.9324 24.6616 61.0541 24.9022C61.1757 25.1428 61.4189 25.3232 61.7838 25.5037C62.0879 25.624 62.3311 25.6841 62.5135 25.7443C62.696 25.8044 63 25.8044 63.3649 25.8646V27.0676H63.4865Z" fill="#1C2953"/>
<path d="M76.3784 26.2857C75.5878 26.5864 74.8581 26.8872 74.1892 27.0676C73.5203 27.3082 72.6689 27.3684 71.6959 27.3684C70.2365 27.3684 69.2027 27.0075 68.5946 26.2857C67.9865 25.5639 67.6824 24.5413 67.6824 23.218V11.5488H64.5203V9.86461H67.7432V4.51123H70.9662V9.86461H75.9527V11.5488H70.9662V21.1729C70.9662 21.8947 70.9662 22.4962 71.027 22.9774C71.0878 23.4586 71.2095 23.8797 71.3919 24.2406C71.5743 24.6015 71.8784 24.8421 72.2432 25.0225C72.6081 25.203 73.1554 25.2631 73.7635 25.2631C74.0676 25.2631 74.4932 25.2631 75.0405 25.203C75.5878 25.1428 76.0135 25.0827 76.2568 25.0225V26.2857H76.3784Z" fill="#1C2953"/>
<path d="M94.6216 26.7669C94.0743 26.9473 93.5878 27.1278 93.1621 27.2481C92.7365 27.3684 92.25 27.4285 91.7635 27.4285C90.8513 27.4285 90.1216 27.1879 89.5743 26.7669C89.027 26.3458 88.6622 25.7443 88.5405 24.9022H88.4189C87.6284 25.7443 86.8378 26.406 85.9257 26.827C85.0135 27.2481 83.9797 27.4887 82.7635 27.4887C81.4257 27.4887 80.3919 27.0676 79.5405 26.2857C78.6892 25.5037 78.2635 24.4812 78.2635 23.1579C78.2635 22.4962 78.3851 21.8947 78.5675 21.3533C78.75 20.812 79.054 20.3308 79.4189 19.9097C79.723 19.5488 80.0878 19.2481 80.5743 18.9473C81.0608 18.6466 81.4865 18.4661 81.9121 18.2857C82.4594 18.1052 83.4932 17.7443 85.1351 17.203C86.777 16.6616 87.8716 16.2406 88.4189 15.9398V14.1955C88.4189 14.015 88.3581 13.7744 88.2973 13.2932C88.2365 12.812 88.1148 12.4511 87.8716 12.0902C87.6284 11.6691 87.3243 11.3082 86.8986 10.9473C86.473 10.6466 85.8648 10.4661 85.0743 10.4661C84.527 10.4661 84.0405 10.5864 83.554 10.7669C83.0675 10.9473 82.7635 11.1278 82.5811 11.3082C82.5811 11.5488 82.6419 11.9097 82.7635 12.3308C82.8851 12.812 82.9459 13.233 82.9459 13.594C82.9459 14.015 82.7635 14.3759 82.3986 14.7368C82.0338 15.0977 81.4865 15.218 80.8784 15.218C80.2702 15.218 79.8446 15.0376 79.6013 14.6165C79.3581 14.1955 79.1757 13.7143 79.1757 13.233C79.1757 12.6917 79.3581 12.2105 79.723 11.6691C80.0878 11.1278 80.5743 10.7669 81.2432 10.3458C81.7905 10.0451 82.3986 9.74433 83.1892 9.50372C83.9189 9.26312 84.7094 9.14282 85.3784 9.14282C86.3513 9.14282 87.2027 9.20297 87.9932 9.32327C88.7838 9.44357 89.3919 9.74433 90 10.1654C90.6081 10.5864 91.0338 11.1879 91.3986 11.9097C91.7027 12.6315 91.8851 13.594 91.8851 14.797C91.8851 16.4812 91.8851 17.9248 91.8243 19.2481C91.7635 20.5112 91.7635 21.9549 91.7635 23.4586C91.7635 23.9398 91.8243 24.3007 92.0067 24.5413C92.1892 24.7819 92.4324 25.0225 92.7365 25.203C92.9189 25.3233 93.223 25.3834 93.5878 25.3834C93.9527 25.3834 94.3784 25.3834 94.7432 25.3834V26.7669H94.6216ZM88.4189 17.5037C87.4459 17.8045 86.5338 18.1052 85.804 18.3458C85.0743 18.6466 84.3446 18.9473 83.6757 19.3684C83.0676 19.7894 82.6419 20.2105 82.277 20.7518C81.9121 21.2932 81.7905 21.9549 81.7905 22.6767C81.7905 23.6391 82.0338 24.3609 82.5811 24.8421C83.0675 25.3233 83.7365 25.5037 84.527 25.5037C85.3784 25.5037 86.1081 25.3233 86.7162 24.9022C87.3243 24.4812 87.8716 24 88.2973 23.4586L88.4189 17.5037Z" fill="#1C2953"/>
<path d="M104.473 27.0677H95.9594V25.9248C96.2027 25.9248 96.5067 25.8647 96.8108 25.8647C97.1148 25.8647 97.3581 25.8045 97.5405 25.7444C97.8446 25.6241 98.0878 25.4436 98.2702 25.203C98.4527 24.9624 98.5135 24.6015 98.5135 24.1805V4.15038C98.5135 3.72932 98.3919 3.30827 98.2094 2.94737C98.027 2.58647 97.7837 2.28571 97.4797 2.10526C97.2973 1.98496 96.8716 1.86466 96.3243 1.74436C95.777 1.62406 95.2905 1.56391 94.9865 1.56391V0.360902L101.615 0L101.858 0.240601V23.8797C101.858 24.3008 101.919 24.6015 102.101 24.9023C102.284 25.1429 102.527 25.3835 102.831 25.5038C103.074 25.6241 103.318 25.6842 103.622 25.7444C103.865 25.8045 104.169 25.8647 104.473 25.8647V27.0677Z" fill="#1C2953"/>
<path d="M139.804 12.5715C139.135 12.6317 138.405 12.752 137.676 12.9926C136.946 13.2332 136.399 13.534 136.034 14.0152C135.791 14.3159 135.547 14.737 135.304 15.2783C135.061 15.8197 134.757 16.4813 134.392 17.2031C134.027 17.9249 133.662 18.7069 133.297 19.4287C132.932 20.1505 132.446 20.8723 131.899 21.5941C132.385 22.1355 132.932 22.737 133.601 23.3986C134.27 24.0603 134.878 24.5415 135.365 24.8422C135.851 25.0828 136.52 25.3234 137.372 25.5039C138.223 25.6843 138.953 25.8046 139.5 25.8046V27.0678H132.203L129.588 24.1204C129.223 24.5415 128.737 24.9625 128.25 25.4437C127.764 25.8648 127.216 26.2858 126.669 26.5866C126.061 26.9475 125.453 27.1881 124.845 27.4287C124.237 27.6091 123.507 27.7294 122.655 27.7294C121.804 27.7294 120.892 27.6091 120.041 27.3685C119.189 27.1279 118.399 26.7069 117.669 26.1655C117 25.6242 116.453 24.9625 116.027 24.1204C115.601 23.2783 115.419 22.2558 115.419 21.1129C115.419 19.6693 115.784 18.346 116.574 17.2031C117.365 16.0603 118.764 14.7971 120.892 13.4738C119.919 12.2106 119.189 11.1279 118.642 10.2257C118.095 9.32342 117.851 8.30087 117.851 7.15801C117.851 6.37606 118.034 5.5941 118.338 4.93245C118.703 4.21064 119.189 3.60914 119.797 3.12794C120.345 2.64673 121.014 2.34598 121.804 2.04523C122.595 1.80463 123.385 1.68433 124.176 1.68433C125.088 1.68433 125.939 1.80463 126.669 2.10538C127.399 2.40613 127.946 2.76703 128.432 3.24824C128.858 3.66929 129.162 4.21064 129.405 4.81215C129.649 5.41365 129.709 5.955 129.709 6.55651C129.709 7.93997 129.284 9.14297 128.372 10.1655C127.52 11.1881 126.304 12.0903 124.723 12.8723C125.818 14.3761 126.912 15.6994 127.946 16.9024C128.98 18.1054 130.014 19.3084 130.986 20.5114C131.777 19.2482 132.385 18.1054 132.811 16.9625C133.236 15.8798 133.48 14.9174 133.48 14.0753C133.48 13.7144 133.176 13.4137 132.628 13.173C132.081 12.9324 131.351 12.752 130.378 12.5715V11.3084H139.804V12.5715ZM128.737 23.0979C127.642 21.7144 126.426 20.2106 125.027 18.5866C123.628 16.9625 122.534 15.5791 121.743 14.4362C120.77 15.0979 120.101 15.8798 119.737 16.7219C119.372 17.6242 119.128 18.5866 119.128 19.7294C119.128 21.2934 119.615 22.6167 120.527 23.6994C121.439 24.7219 122.655 25.2633 124.176 25.2633C125.027 25.2633 125.878 25.0828 126.73 24.7219C127.581 24.361 128.189 23.7595 128.737 23.0979ZM127.338 6.91741C127.338 5.7144 127.095 4.81215 126.547 4.21064C126 3.54899 125.27 3.24824 124.297 3.24824C123.75 3.24824 123.264 3.36854 122.899 3.60914C122.534 3.84974 122.23 4.09034 121.987 4.45124C121.743 4.752 121.561 5.1129 121.5 5.4738C121.378 5.8347 121.318 6.1956 121.318 6.49636C121.318 7.27831 121.5 8.12042 121.926 8.96252C122.351 9.80463 123.02 10.767 123.932 11.97C125.149 11.3084 126 10.5866 126.547 9.80463C127.095 8.84222 127.338 7.93997 127.338 6.91741Z" fill="#1C2953"/>
<path d="M168.081 15.5188C168.811 16 169.419 16.6617 169.905 17.4436C170.392 18.2256 170.635 19.188 170.635 20.3309C170.635 21.4737 170.392 22.4963 169.905 23.3384C169.419 24.1805 168.75 24.9023 167.899 25.4436C167.108 25.985 166.196 26.406 165.223 26.6466C164.25 26.9474 163.216 27.0677 162.122 27.0677H150.263V25.8045C150.568 25.8045 150.932 25.7444 151.48 25.6842C152.027 25.6241 152.392 25.5038 152.635 25.3835C153 25.203 153.243 25.0226 153.426 24.7218C153.608 24.4211 153.669 24.1203 153.669 23.6391V5.83461C153.669 5.41356 153.608 5.1128 153.486 4.81205C153.365 4.5113 153.061 4.2707 152.696 4.09025C152.331 3.9098 151.966 3.7895 151.541 3.6692C151.115 3.54889 150.75 3.48874 150.446 3.48874V2.22559H162C162.912 2.22559 163.763 2.28574 164.554 2.46619C165.345 2.64664 166.135 2.94739 166.865 3.36844C167.534 3.7895 168.142 4.33085 168.568 5.05265C168.993 5.77446 169.236 6.61656 169.236 7.57897C169.236 8.48123 169.054 9.20303 168.75 9.92484C168.446 10.5865 167.959 11.188 167.412 11.6692C166.865 12.1504 166.257 12.5113 165.527 12.8722C164.797 13.2331 164.068 13.4136 163.277 13.594V13.8346C164.007 13.8948 164.797 14.0752 165.709 14.376C166.622 14.6767 167.412 15.0376 168.081 15.5188ZM163.824 11.7895C164.25 11.3083 164.554 10.7669 164.736 10.1654C164.919 9.56393 164.98 8.84213 164.98 8.06017C164.98 6.67671 164.615 5.59401 163.824 4.8722C163.095 4.09025 161.878 3.72935 160.236 3.72935C159.872 3.72935 159.385 3.72935 158.838 3.72935C158.291 3.72935 157.804 3.7895 157.378 3.7895V13.2331H159.628C160.601 13.2331 161.392 13.1128 162.122 12.8722C162.851 12.6316 163.399 12.2707 163.824 11.7895ZM166.257 19.6692C166.257 18.2256 165.77 17.0226 164.736 16.0602C163.703 15.0978 162.304 14.6166 160.48 14.6166C159.75 14.6166 159.081 14.6166 158.595 14.6166C158.047 14.6166 157.682 14.6767 157.439 14.6767V23.4587C157.439 24.1805 157.743 24.7218 158.351 25.1429C158.959 25.5639 159.811 25.6842 160.845 25.6842C162.608 25.6842 163.946 25.203 164.858 24.1805C165.831 23.1579 166.257 21.6542 166.257 19.6692Z" fill="#1C2953"/>
<path d="M189 22.9774C188.27 24.3608 187.297 25.4435 186.081 26.2857C184.865 27.1278 183.466 27.4887 181.885 27.4887C180.486 27.4887 179.27 27.2481 178.176 26.7669C177.142 26.2856 176.23 25.624 175.561 24.7819C174.892 23.9398 174.345 22.9774 174.041 21.8345C173.676 20.6917 173.554 19.5488 173.554 18.2856C173.554 17.1428 173.736 16.0601 174.101 14.9774C174.466 13.8947 175.013 12.9323 175.682 12.0902C176.351 11.2481 177.203 10.5864 178.176 10.1052C179.149 9.62399 180.304 9.32324 181.52 9.32324C182.797 9.32324 183.892 9.50369 184.804 9.92475C185.716 10.3458 186.446 10.8872 186.993 11.5488C187.541 12.2105 187.966 12.9924 188.209 13.8345C188.453 14.7368 188.635 15.6992 188.635 16.7217V17.8646H177.081C177.081 19.0075 177.203 20.03 177.385 20.9323C177.628 21.8345 177.932 22.6766 178.419 23.3383C178.905 23.9999 179.453 24.5413 180.243 24.9623C180.973 25.3834 181.885 25.5638 182.919 25.5638C183.953 25.5638 184.865 25.3232 185.655 24.842C186.385 24.3608 187.176 23.4586 187.845 22.1954L189 22.9774ZM185.108 16.421C185.108 15.7593 185.047 15.0977 184.926 14.3157C184.804 13.5939 184.622 12.9323 184.378 12.4511C184.135 11.9097 183.709 11.4887 183.284 11.1278C182.797 10.7669 182.189 10.6466 181.459 10.6466C180.243 10.6466 179.209 11.1278 178.358 12.1503C177.568 13.1729 177.081 14.5563 177.02 16.421H185.108Z" fill="#1C2953"/>
<path d="M207.486 26.7669C206.939 26.9473 206.453 27.1278 206.027 27.2481C205.601 27.3684 205.115 27.4285 204.628 27.4285C203.716 27.4285 202.986 27.1879 202.439 26.7669C201.892 26.3458 201.527 25.7443 201.405 24.9022H201.284C200.493 25.7443 199.703 26.406 198.791 26.827C197.878 27.2481 196.845 27.4887 195.628 27.4887C194.291 27.4887 193.257 27.0676 192.405 26.2857C191.554 25.5037 191.128 24.4812 191.128 23.1579C191.128 22.4962 191.25 21.8947 191.432 21.3533C191.615 20.812 191.919 20.3308 192.284 19.9097C192.588 19.5488 192.953 19.2481 193.439 18.9473C193.926 18.6466 194.351 18.4661 194.777 18.2857C195.324 18.1052 196.358 17.7443 198 17.203C199.642 16.6616 200.736 16.2406 201.284 15.9398V14.1955C201.284 14.015 201.223 13.7744 201.162 13.2932C201.101 12.812 200.98 12.4511 200.736 12.0902C200.493 11.6691 200.189 11.3082 199.764 10.9473C199.338 10.6466 198.73 10.4661 197.939 10.4661C197.392 10.4661 196.905 10.5864 196.419 10.7669C195.932 10.9473 195.628 11.1278 195.446 11.3082C195.446 11.5488 195.507 11.9097 195.628 12.3308C195.75 12.812 195.811 13.233 195.811 13.594C195.811 14.015 195.628 14.3759 195.264 14.7368C194.899 15.0977 194.351 15.218 193.743 15.218C193.135 15.218 192.709 15.0376 192.466 14.6165C192.223 14.1955 192.041 13.7143 192.041 13.233C192.041 12.6917 192.223 12.2105 192.588 11.6691C192.953 11.1278 193.439 10.7669 194.108 10.3458C194.655 10.0451 195.263 9.74433 196.054 9.50372C196.784 9.26312 197.574 9.14282 198.243 9.14282C199.216 9.14282 200.068 9.20297 200.858 9.32327C201.649 9.44357 202.257 9.74433 202.865 10.1654C203.473 10.5864 203.899 11.1879 204.263 11.9097C204.568 12.6315 204.75 13.594 204.75 14.797C204.75 16.4812 204.75 17.9248 204.689 19.2481C204.628 20.5112 204.628 21.9549 204.628 23.4586C204.628 23.9398 204.689 24.3007 204.872 24.5413C205.054 24.7819 205.297 25.0225 205.601 25.203C205.784 25.3233 206.088 25.3834 206.453 25.3834C206.818 25.3834 207.243 25.3834 207.608 25.3834V26.7669H207.486ZM201.345 17.5037C200.372 17.8045 199.459 18.1052 198.73 18.3458C198 18.6466 197.27 18.9473 196.601 19.3684C195.993 19.7894 195.568 20.2105 195.203 20.7518C194.838 21.2932 194.716 21.9549 194.716 22.6767C194.716 23.6391 194.959 24.3609 195.507 24.8421C195.993 25.3233 196.662 25.5037 197.453 25.5037C198.304 25.5037 199.034 25.3233 199.642 24.9022C200.25 24.4812 200.797 24 201.223 23.4586L201.345 17.5037Z" fill="#1C2953"/>
<path d="M227.919 26.7669L222.203 27.1278L221.959 26.8872V24.7218H221.838C221.534 25.0225 221.23 25.3233 220.865 25.6842C220.5 26.0451 220.135 26.3458 219.649 26.5864C219.101 26.8872 218.615 27.1278 218.128 27.3082C217.642 27.4887 216.912 27.5488 216 27.5488C214.48 27.5488 213.263 27.0676 212.473 26.0451C211.682 25.0225 211.257 23.5789 211.257 21.7142V13.4135C211.257 12.9924 211.196 12.6315 211.013 12.3308C210.831 12.03 210.649 11.7894 210.284 11.609C210.04 11.4887 209.797 11.3684 209.493 11.3082C209.189 11.2481 208.824 11.1879 208.459 11.1879V10.0451L214.297 9.62402L214.54 9.86462V21.8346C214.54 23.0977 214.845 24 215.392 24.6616C215.939 25.2631 216.608 25.624 217.399 25.624C218.068 25.624 218.615 25.5037 219.101 25.3233C219.588 25.1428 220.013 24.9022 220.378 24.6015C220.682 24.3609 220.986 24.1203 221.23 23.8195C221.473 23.5188 221.655 23.2782 221.777 23.0376V13.2932C221.777 12.9323 221.716 12.5714 221.534 12.2706C221.351 11.9699 221.169 11.7293 220.865 11.4887C220.682 11.3684 220.318 11.2481 219.892 11.2481C219.466 11.2481 218.98 11.1879 218.493 11.1879V10.0451L225 9.62402L225.243 9.86462V23.5188C225.243 23.9398 225.304 24.2406 225.486 24.5413C225.669 24.8421 225.851 25.0827 226.155 25.2631C226.338 25.3834 226.642 25.5037 226.885 25.5037C227.189 25.5639 227.493 25.5639 227.858 25.5639V26.7669H227.919Z" fill="#1C2953"/>
<path d="M240.811 26.2857C240.02 26.5864 239.291 26.8872 238.622 27.0676C237.953 27.3082 237.101 27.3684 236.128 27.3684C234.669 27.3684 233.635 27.0075 233.027 26.2857C232.419 25.5639 232.115 24.5413 232.115 23.218V11.5488H228.953V9.86461H232.176V4.51123H235.399V9.86461H240.385V11.5488H235.399V21.1729C235.399 21.8947 235.399 22.4962 235.459 22.9774C235.52 23.4586 235.642 23.8797 235.824 24.2406C236.007 24.6015 236.311 24.8421 236.676 25.0225C237.041 25.203 237.588 25.2631 238.196 25.2631C238.5 25.2631 238.926 25.2631 239.473 25.203C240.02 25.1428 240.446 25.0827 240.689 25.0225V26.2857H240.811Z" fill="#1C2953"/>
<path d="M243.73 29.8345C243.73 29.233 243.912 28.7518 244.216 28.3909C244.52 28.03 244.946 27.8496 245.432 27.8496C245.797 27.8496 246.162 27.9097 246.405 28.03C246.649 28.1503 246.892 28.3308 247.135 28.5714C247.318 28.7518 247.5 28.9924 247.682 29.2932C247.865 29.594 248.047 29.8346 248.169 30.015C249.264 29.3533 250.48 27.4887 250.905 26.1052C249.811 23.3383 248.777 20.8721 247.865 18.7067C246.953 16.5413 245.98 14.8571 245.007 12.5714C244.764 12.03 244.399 11.609 243.851 11.3082C243.304 11.0075 242.818 10.827 242.27 10.7669V9.62402H250.236V10.827C249.872 10.827 249.446 10.8872 248.959 11.0676C248.473 11.1879 248.23 11.3684 248.23 11.5488C248.23 11.609 248.23 11.7293 248.291 11.9097C248.351 12.0902 248.412 12.2706 248.473 12.3909C248.899 13.5338 249.628 14.6165 250.541 16.7819C251.453 18.9473 252.182 20.6917 252.669 22.015C253.216 20.7518 253.764 19.4887 254.311 18.1654C254.858 16.8421 255.527 15.8797 256.257 14.015C256.318 13.7744 256.439 13.4736 256.622 13.1127C256.804 12.7518 256.865 12.3909 256.865 12.0902C256.865 11.7894 256.622 11.4887 256.074 11.2481C255.527 11.0075 255.041 10.827 254.554 10.7669V9.62402H261V10.7067C260.635 10.7669 260.209 10.9473 259.601 11.3082C258.993 11.6691 258.568 12.1503 258.324 12.7518C256.926 15.9398 255.649 18.2857 254.615 20.9323C253.52 23.5789 252.669 25.5037 252.122 26.7669C251.392 28.3909 250.419 29.9549 249.568 30.6767C249.02 31.1579 248.534 31.5188 248.108 31.6391C247.682 31.8195 247.196 31.8797 246.709 31.8797C245.797 31.8797 245.068 31.6391 244.52 31.218C243.973 30.9173 243.73 30.3759 243.73 29.8345Z" fill="#1C2953"/>
</svg>
